<svg width="24" height="24" viewBox="0 0 24 24" fill="none" xmlns="http://www.w3.org/2000/svg">
<path d="M16.5915 0.0181259C15.3068 0.21492 14.0511 0.914058 13.2061 1.90321C12.6525 2.54797 12.2048 3.43872 12.0353 4.2259C11.9637 4.56252 11.924 5.04415 11.9478 5.30827L11.969 5.52837L12.226 5.53614C12.9942 5.55685 13.8975 5.24871 14.6922 4.69458C14.9677 4.50038 15.4922 4.0058 15.7041 3.74168C16.377 2.89754 16.7928 1.92651 16.9094 0.932184C16.9385 0.691369 16.9412 0.292602 16.9147 0.0958076L16.9041 0L16.7796 0.00258915C16.7134 0.00517866 16.6286 0.0129468 16.5915 0.0181259Z" fill="white"/>
<path d="M16.0246 5.80285C15.3968 5.86758 14.7823 6.04366 13.5982 6.49422C12.8008 6.79718 12.573 6.8645 12.2684 6.88004C11.8578 6.90334 11.6432 6.84896 10.6181 6.46055C10.2684 6.3285 9.83131 6.17313 9.64853 6.11617C8.95714 5.89607 8.33463 5.81838 7.71742 5.87535C5.08432 6.11875 2.98367 7.97535 2.27904 10.6813C2.09096 11.4037 2.02474 11.8879 2.00355 12.758C1.96381 14.3556 2.25785 15.9947 2.88301 17.6856C3.37043 18.9984 3.93996 20.0782 4.72141 21.1683C5.72803 22.577 6.46709 23.3279 7.20881 23.7034C7.68828 23.9442 8.02735 24.0193 8.53331 23.996C9.05781 23.9727 9.42866 23.8769 10.2525 23.5402C10.528 23.4289 10.8856 23.2942 11.0525 23.2425C11.7995 23.0042 12.6869 22.9628 13.4604 23.1259C13.781 23.1933 14.1121 23.3072 14.671 23.5376C15.4551 23.8613 15.7809 23.9468 16.3293 23.9701C17.2882 24.0115 18.0485 23.6723 18.8829 22.8359C19.3385 22.3776 19.6829 21.9478 20.3081 21.0518C20.9359 20.1481 21.4789 19.115 21.863 18.087C22.0564 17.5691 22.067 17.6338 21.7518 17.4784C21.4047 17.3075 20.9624 17.0253 20.6577 16.7741C19.5849 15.8989 18.9491 14.7699 18.7769 13.439C18.7081 12.9263 18.7319 12.1236 18.8273 11.6834C18.9968 10.9066 19.3306 10.2022 19.8471 9.54194C20.1412 9.16389 20.769 8.58904 21.1875 8.31197L21.3862 8.17992L21.222 7.96758C21.0153 7.70088 20.5624 7.24255 20.3001 7.0354C19.8551 6.68583 19.2326 6.34662 18.6736 6.14983C17.8551 5.8624 16.7955 5.72258 16.0246 5.80285Z" fill="white"/>
</svg>
