<svg width="16" height="16" viewBox="0 0 16 16" fill="none" xmlns="http://www.w3.org/2000/svg">
<path d="M11.8656 12.3055C12.2858 12.3055 12.635 12.1799 12.9131 11.9287C13.1912 11.6774 13.3364 11.3006 13.3488 10.7981C13.3611 10.371 13.2221 10.013 12.9316 9.72409C12.6412 9.43517 12.2858 9.29071 11.8656 9.29071C11.4453 9.29071 11.0931 9.43517 10.8088 9.72409C10.5245 10.013 10.3824 10.371 10.3824 10.7981C10.3824 11.2252 10.5245 11.5832 10.8088 11.8721C11.0931 12.1611 11.4453 12.3055 11.8656 12.3055ZM14.7578 14.7927L13.3859 13.3984C13.1634 13.5366 12.9255 13.6402 12.6721 13.7093C12.4187 13.7784 12.1499 13.8129 11.8656 13.8129C11.0498 13.8129 10.3515 13.5177 9.77057 12.9273C9.18965 12.3369 8.89919 11.6272 8.89919 10.7981C8.89919 9.96904 9.18965 9.25931 9.77057 8.66891C10.3515 8.07851 11.0498 7.78331 11.8656 7.78331C12.6813 7.78331 13.3797 8.07851 13.9606 8.66891C14.5415 9.25931 14.832 9.96904 14.832 10.7981C14.832 11.087 14.798 11.3603 14.73 11.6178C14.662 11.8753 14.5601 12.1171 14.4241 12.3432L15.7961 13.7375C15.932 13.8757 16 14.0516 16 14.2651C16 14.4787 15.932 14.6546 15.7961 14.7927C15.6601 14.9309 15.4871 15 15.2769 15C15.0668 15 14.8938 14.9309 14.7578 14.7927ZM1.4832 13.0592C1.07532 13.0592 0.726149 12.9116 0.435689 12.6164C0.14523 12.3212 0 11.9664 0 11.5518V10.9489C0 10.5218 0.10815 10.1292 0.32445 9.7712C0.540749 9.41319 0.828119 9.13997 1.18656 8.95155C1.95288 8.56214 2.73156 8.27008 3.5226 8.07537C4.31363 7.88066 5.11703 7.78331 5.93279 7.78331C6.15527 7.78331 6.37775 7.79273 6.60023 7.81157C6.82271 7.83042 7.04519 7.8524 7.26767 7.87752C7.51487 7.91521 7.691 8.05025 7.79606 8.28264C7.90112 8.51503 7.89185 8.75684 7.76825 9.00807C7.64465 9.29699 7.55504 9.58905 7.49942 9.88425C7.4438 10.1795 7.41599 10.4841 7.41599 10.7981C7.41599 11.0117 7.43144 11.2252 7.46234 11.4388C7.49324 11.6523 7.53959 11.8659 7.60139 12.0794C7.67555 12.3306 7.64465 12.5568 7.50869 12.7577C7.37273 12.9587 7.18733 13.0592 6.95249 13.0592H1.4832ZM13.3488 4.0148C13.3488 4.84388 13.0583 5.55361 12.4774 6.14401C11.8965 6.73441 11.1981 7.02961 10.3824 7.02961C10.2464 7.02961 10.0734 7.01391 9.86327 6.9825C9.65315 6.9511 9.48011 6.91655 9.34415 6.87887C9.67787 6.4769 9.93434 6.03096 10.1136 5.54105C10.2928 5.05114 10.3824 4.5424 10.3824 4.0148C10.3824 3.48721 10.2928 2.97847 10.1136 2.48856C9.93434 1.99865 9.67787 1.55271 9.34415 1.15074C9.51719 1.08793 9.69023 1.04711 9.86327 1.02826C10.0363 1.00942 10.2093 1 10.3824 1C11.1981 1 11.8965 1.2952 12.4774 1.8856C13.0583 2.476 13.3488 3.18573 13.3488 4.0148ZM5.93279 7.02961C5.11703 7.02961 4.41869 6.73441 3.83777 6.14401C3.25686 5.55361 2.9664 4.84388 2.9664 4.0148C2.9664 3.18573 3.25686 2.476 3.83777 1.8856C4.41869 1.2952 5.11703 1 5.93279 1C6.74855 1 7.44689 1.2952 8.02781 1.8856C8.60873 2.476 8.89919 3.18573 8.89919 4.0148C8.89919 4.84388 8.60873 5.55361 8.02781 6.14401C7.44689 6.73441 6.74855 7.02961 5.93279 7.02961Z" fill="#D4E5E3"/>
</svg>
