<svg width="24" height="24" viewBox="0 0 24 24" fill="none" xmlns="http://www.w3.org/2000/svg">
<path d="M14.3318 0.00652695C14.2393 0.0110779 14.1347 0.0201797 14.0981 0.0270061C14.0615 0.0338306 13.9497 0.045208 13.8491 0.0520344C13.7486 0.0588608 13.6256 0.0713749 13.5748 0.0804749C13.525 0.0895767 13.4194 0.104366 13.3411 0.114605C13.2629 0.124846 13.1694 0.140772 13.1328 0.151011C13.0962 0.161251 13.0343 0.173765 12.9946 0.178316C12.954 0.184004 12.9083 0.194242 12.893 0.201069C12.8768 0.207895 12.8199 0.226097 12.767 0.23975C12.3972 0.338726 12.129 0.437704 11.8424 0.581051C11.7835 0.61063 11.7103 0.645899 11.6799 0.660688C11.6057 0.695955 11.4045 0.811998 11.3852 0.831339C11.3771 0.839302 11.3537 0.854092 11.3344 0.865469C11.2887 0.88936 11.2114 0.939417 11.181 0.965584C11.1678 0.976959 11.1068 1.02247 11.0458 1.06797C10.9849 1.11348 10.9188 1.1624 10.8985 1.17833C10.8436 1.21928 10.7227 1.32964 10.6994 1.36036C10.6882 1.37514 10.6668 1.39449 10.6526 1.40472C10.5967 1.44341 10.2584 1.80746 10.235 1.8541C10.2299 1.8632 10.1923 1.90871 10.1517 1.9565C10.11 2.00314 10.0643 2.06116 10.0501 2.08505C10.0348 2.10894 10.0084 2.1499 9.99014 2.17607C9.90174 2.30576 9.77982 2.49689 9.73714 2.57539C9.71072 2.62317 9.6711 2.6937 9.64874 2.73125C9.62639 2.76879 9.60404 2.81316 9.59794 2.83136C9.59184 2.84843 9.5766 2.87914 9.56441 2.89962C9.55222 2.91896 9.53393 2.94968 9.52377 2.96675C9.51361 2.98381 9.50243 3.01453 9.49837 3.03501C9.49532 3.05548 9.48109 3.08848 9.46788 3.10782C9.45569 3.12716 9.43943 3.16015 9.43334 3.18177C9.42623 3.20338 9.41302 3.2341 9.40184 3.25116C9.39168 3.26709 9.38355 3.28757 9.38355 3.29667C9.38355 3.30577 9.37034 3.33649 9.35307 3.36607C9.33681 3.39565 9.32259 3.42636 9.32259 3.43433C9.32259 3.44229 9.31547 3.46277 9.30633 3.48097C9.2982 3.50031 9.27077 3.57426 9.24537 3.64594C9.21996 3.71875 9.18847 3.80635 9.17526 3.84162C9.16103 3.87688 9.14986 3.91442 9.14986 3.92467C9.14986 3.93604 9.14478 3.95538 9.13868 3.9679C9.10413 4.03957 8.92632 4.83025 8.92632 4.90989C8.92632 4.92695 8.92226 4.94402 8.91718 4.94971C8.91108 4.95653 8.90194 4.99408 8.89584 5.03503C8.88974 5.07599 8.87552 5.16473 8.86434 5.23412C8.85317 5.30238 8.83793 5.40819 8.8298 5.46735C8.82065 5.5265 8.80744 5.62434 8.79931 5.6835C8.79119 5.74266 8.77696 5.87577 8.76883 5.9793C8.74648 6.25916 8.72311 7.49467 8.72311 8.4105C8.72311 9.18298 8.72209 9.21938 8.70381 9.23759C8.68653 9.25465 8.58797 9.25579 7.35143 9.25465C6.16873 9.25465 6.01632 9.25579 6.00819 9.27172C5.996 9.29675 5.99803 13.6722 6.01022 13.6859C6.01734 13.6938 6.47456 13.6961 7.34127 13.695C8.68348 13.6916 8.69161 13.6916 8.71498 13.7314C8.71905 13.7382 8.72311 16.0511 8.72311 18.8714V24H11.0956H13.4681L13.4702 19.042C13.4712 16.3162 13.4712 14.0113 13.4691 13.9202C13.4671 13.7587 13.4681 13.7541 13.4925 13.7234L13.5179 13.6927H15.293C16.7276 13.6938 17.0701 13.6904 17.0772 13.6791C17.0812 13.6711 17.0853 13.6461 17.0853 13.6244C17.0853 13.6017 17.0944 13.5357 17.1046 13.4765C17.1158 13.4174 17.13 13.3116 17.1361 13.2433C17.1432 13.1739 17.1564 13.0795 17.1666 13.0329C17.1767 12.9862 17.1879 12.9066 17.191 12.8565C17.194 12.8065 17.2082 12.7018 17.2215 12.6233C17.2347 12.5448 17.2489 12.4481 17.253 12.4071C17.257 12.3662 17.2662 12.3047 17.2733 12.2706C17.2804 12.2365 17.2916 12.1568 17.2977 12.0943C17.3099 11.9828 17.318 11.927 17.3444 11.7814C17.3525 11.7405 17.3637 11.6563 17.3708 11.5937C17.3769 11.5311 17.3871 11.4708 17.3922 11.4595C17.3972 11.4492 17.4054 11.3866 17.4104 11.3229C17.4155 11.2581 17.4287 11.1671 17.4399 11.1204C17.4511 11.0738 17.4623 10.9976 17.4663 10.9509C17.4704 10.9043 17.4816 10.8292 17.4917 10.786C17.5019 10.7416 17.5151 10.6597 17.5212 10.6039C17.5273 10.547 17.5395 10.4685 17.5476 10.4276C17.5547 10.3866 17.5689 10.3024 17.5781 10.2399C17.5883 10.1773 17.6015 10.0999 17.6096 10.0692C17.6167 10.0374 17.6258 9.97366 17.6299 9.92701C17.633 9.88037 17.6441 9.80301 17.6543 9.75636C17.6645 9.70972 17.6777 9.63805 17.6838 9.59709C17.7081 9.43895 17.7234 9.35135 17.7336 9.31722C17.7386 9.29788 17.7407 9.27513 17.7356 9.2683C17.7305 9.25693 17.2448 9.25465 15.6161 9.25579L13.5027 9.25693L13.4854 9.21597C13.4691 9.17843 13.4681 9.11813 13.4702 8.54702C13.4712 7.93837 13.4803 7.46168 13.4925 7.33313C13.5027 7.23074 13.5179 6.96338 13.524 6.78704C13.5352 6.48897 13.5545 6.3479 13.6124 6.14654C13.6276 6.09079 13.6409 6.03618 13.6409 6.02481C13.6409 6.01457 13.649 5.99295 13.6591 5.97816C13.6703 5.96337 13.6815 5.93607 13.6856 5.91786C13.6896 5.89852 13.7089 5.84619 13.7282 5.80068C13.7475 5.75518 13.7628 5.71422 13.7628 5.70967C13.7628 5.70512 13.7689 5.69374 13.776 5.68464C13.7831 5.6744 13.7983 5.64368 13.8085 5.61524C13.8309 5.55722 13.8552 5.51399 13.9203 5.41388C13.9457 5.37519 13.966 5.33993 13.966 5.33538C13.966 5.33196 13.9812 5.30921 13.9995 5.28532C14.0168 5.26257 14.0574 5.21137 14.0879 5.17155C14.1641 5.07257 14.2241 5.00773 14.2962 4.94629C14.3297 4.91785 14.3673 4.88258 14.3785 4.86893C14.3907 4.85528 14.4141 4.83594 14.4313 4.8257C14.4486 4.81546 14.4822 4.79271 14.5065 4.7745C14.5309 4.7563 14.5736 4.729 14.601 4.71421C14.6295 4.69828 14.6691 4.67553 14.6904 4.66187C14.7118 4.64822 14.7352 4.63685 14.7423 4.63685C14.7494 4.63685 14.7616 4.62888 14.7687 4.61978C14.7758 4.61068 14.8073 4.59475 14.8388 4.58451C14.8703 4.57427 14.9119 4.55607 14.9313 4.54356C14.9506 4.53104 14.9749 4.51967 14.9871 4.51739C15.0247 4.51284 15.0684 4.49691 15.104 4.47757C15.1233 4.4662 15.1619 4.45368 15.1883 4.45027C15.2157 4.44572 15.2564 4.43434 15.2798 4.42524C15.3184 4.40931 15.4352 4.39338 15.7136 4.36381C16.2745 4.30465 17.4094 4.30237 17.9144 4.36039C18.0089 4.37063 17.9998 4.59134 17.9998 2.33534C17.9998 1.23862 17.9957 0.335314 17.9916 0.327351C17.9866 0.319387 17.954 0.30801 17.9185 0.301184C17.8819 0.294357 17.8484 0.285257 17.8423 0.280706C17.8372 0.275017 17.8047 0.267054 17.7711 0.263641C17.7376 0.25909 17.6553 0.243162 17.5883 0.228373C17.4582 0.199932 17.4013 0.189692 17.3474 0.182865C17.3292 0.180592 17.2702 0.170351 17.2174 0.160112C17.1646 0.151011 17.0772 0.13736 17.0243 0.130533C16.9715 0.123707 16.8801 0.111193 16.8211 0.100954C16.7124 0.0827503 16.6067 0.0702362 16.4604 0.0588608C16.3781 0.0520344 16.2481 0.0383816 16.0438 0.0156288C15.9107 0.000839233 14.5766 -0.00598717 14.3318 0.00652695Z" fill="white"/>
</svg>
