<svg width="24" height="24" viewBox="0 0 24 24" fill="none" xmlns="http://www.w3.org/2000/svg">
<g clip-path="url(#clip0_99_1744)">
<path d="M11.4919 0.0131779C11.4057 0.0220757 11.12 0.0532169 10.8569 0.0799103C9.30595 0.235615 7.53274 0.787256 6.16315 1.53464C3.22897 3.13618 1.22447 5.70754 0.37641 8.95511C0.0816312 10.0984 0 10.739 0 11.998C0 13.1725 0.0770961 13.8398 0.317455 14.8452C0.838987 17.0206 1.9138 18.938 3.46025 20.4506C5.4058 22.3547 7.94997 23.5425 10.8569 23.8984C13.8093 24.2632 16.6301 23.6403 18.9566 22.1189C19.6731 21.6473 20.0903 21.3048 20.7434 20.6464C22.6345 18.7423 23.7184 16.251 23.9678 13.2615C24.054 12.1893 23.9587 10.4143 23.7819 9.80482L23.732 9.64021H18.045H12.3535V11.998V14.3559H15.7548H19.1561L19.1289 14.476C19.0654 14.7562 18.8296 15.3969 18.6845 15.6994C17.8319 17.4611 16.0178 18.7779 13.7821 19.2584C13.4147 19.334 13.1744 19.3562 12.5122 19.3562C12.0179 19.3607 11.5599 19.3384 11.3558 19.3028C8.69825 18.8402 6.71643 17.4299 5.61441 15.2234C4.58042 13.1414 4.58042 10.8814 5.61895 8.75937C6.59398 6.76189 8.16765 5.48066 10.3218 4.92902C11.1517 4.71548 11.451 4.67989 12.3762 4.67989C13.1109 4.67989 13.3059 4.69324 13.7095 4.78221C14.7843 5.01799 15.8092 5.49401 16.6709 6.15686C16.8795 6.31702 16.943 6.34816 17.011 6.30812C17.0564 6.28588 17.8273 5.54294 18.7207 4.66209C20.1448 3.2652 20.3443 3.05166 20.2899 2.98937C20.2581 2.95378 20.0541 2.78473 19.8409 2.61568C18.0586 1.23213 16.0632 0.386871 13.8954 0.0977039C13.3966 0.0309734 11.8229 -0.0268612 11.4919 0.0131779Z" fill="white"/>
</g>
<defs>
<clipPath id="clip0_99_1744">
<rect width="24" height="24" fill="white"/>
</clipPath>
</defs>
</svg>
