<svg width="16" height="16" viewBox="0 0 16 16" fill="none" xmlns="http://www.w3.org/2000/svg">
<path d="M8 16C7.79583 16 7.59167 15.9655 7.3875 15.8965C7.18333 15.8275 7.00104 15.724 6.84063 15.586C5.89271 14.7581 5.05417 13.9508 4.325 13.1643C3.59583 12.3777 2.98698 11.6154 2.49844 10.8771C2.0099 10.1389 1.63802 9.4282 1.38281 8.74515C1.1276 8.0621 1 7.41009 1 6.78913C1 4.71927 1.70365 3.07029 3.11094 1.84217C4.51823 0.614058 6.14792 0 8 0C9.85208 0 11.4818 0.614058 12.8891 1.84217C14.2964 3.07029 15 4.71927 15 6.78913C15 7.41009 14.8724 8.0621 14.6172 8.74515C14.362 9.4282 13.9901 10.1389 13.5016 10.8771C13.013 11.6154 12.4042 12.3777 11.675 13.1643C10.9458 13.9508 10.1073 14.7581 9.15938 15.586C8.99896 15.724 8.81667 15.8275 8.6125 15.8965C8.40833 15.9655 8.20417 16 8 16ZM8 8.27943C8.48125 8.27943 8.89323 8.11729 9.23594 7.79301C9.57865 7.46874 9.75 7.07891 9.75 6.62354C9.75 6.16818 9.57865 5.77835 9.23594 5.45407C8.89323 5.1298 8.48125 4.96766 8 4.96766C7.51875 4.96766 7.10677 5.1298 6.76406 5.45407C6.42135 5.77835 6.25 6.16818 6.25 6.62354C6.25 7.07891 6.42135 7.46874 6.76406 7.79301C7.10677 8.11729 7.51875 8.27943 8 8.27943Z" fill="#D4E5E3"/>
</svg>
