<svg width="28" height="28" viewBox="0 0 28 28" fill="none" xmlns="http://www.w3.org/2000/svg">
<g clip-path="url(#clip0_2557_114)">
<path d="M16.1401 28C13.6126 28 11.4641 27.0996 9.69442 25.2987C7.92475 23.498 7.03992 21.3193 7.03992 18.7627V18.1552C5.02374 17.8074 3.34638 16.847 2.00783 15.2738C0.669275 13.7004 0 11.8488 0 9.71908V2.96961C0 2.53826 0.146637 2.17425 0.439911 1.87759C0.733408 1.58071 1.09338 1.43227 1.51981 1.43227H4.30392C4.33041 1.02253 4.4864 0.681388 4.77188 0.408832C5.05714 0.136277 5.40509 0 5.81571 0C6.24215 0 6.60201 0.148441 6.89528 0.445324C7.18878 0.741981 7.33553 1.10599 7.33553 1.53735V4.40188C7.33553 4.83347 7.18878 5.19759 6.89528 5.49424C6.60201 5.7909 6.24215 5.93923 5.81571 5.93923C5.40509 5.93923 5.05714 5.80307 4.77188 5.53074C4.4864 5.25818 4.33041 4.91692 4.30392 4.50696H3.03963V9.71908C3.03963 11.2382 3.5763 12.5311 4.64963 13.5979C5.72274 14.6647 7.01019 15.1981 8.51197 15.1981C10.0135 15.1981 11.301 14.6647 12.3743 13.5979C13.4474 12.5311 13.984 11.2382 13.984 9.71908V4.50696H12.7197C12.6932 4.91692 12.5372 5.25818 12.2517 5.53074C11.9665 5.80307 11.6185 5.93923 11.2079 5.93923C10.7814 5.93923 10.4216 5.7909 10.1283 5.49424C9.83482 5.19759 9.68807 4.83347 9.68807 4.40188V1.53735C9.68807 1.10599 9.83482 0.741981 10.1283 0.445324C10.4216 0.148441 10.7814 0 11.2079 0C11.6185 0 11.9665 0.136277 12.2517 0.408832C12.5372 0.681388 12.6932 1.02253 12.7197 1.43227H15.5038C15.9302 1.43227 16.2902 1.58071 16.5837 1.87759C16.877 2.17425 17.0236 2.53826 17.0236 2.96961V9.71908C17.0236 11.8326 16.3637 13.6734 15.0438 15.2414C13.724 16.8093 12.0692 17.7752 10.0795 18.139V18.7627C10.0795 20.4681 10.6681 21.9216 11.8452 23.1231C13.0223 24.3246 14.4539 24.9253 16.1401 24.9253C17.826 24.9253 19.2562 24.3246 20.4307 23.1231C21.6051 21.9216 22.1923 20.4681 22.1923 18.7627V16.5716C21.3811 16.2517 20.7169 15.7281 20.1998 15.0008C19.6828 14.2735 19.4242 13.4462 19.4242 12.5191C19.4242 11.3122 19.8405 10.2876 20.6732 9.4454C21.5058 8.60295 22.5188 8.18173 23.7121 8.18173C24.9055 8.18173 25.9185 8.60295 26.7511 9.4454C27.5837 10.2876 28 11.3122 28 12.5191C28 13.4462 27.7415 14.2735 27.2244 15.0008C26.7075 15.7281 26.0434 16.2517 25.2319 16.5716V18.7627C25.2319 21.3193 24.3484 23.498 22.5814 25.2987C20.8147 27.0996 18.6676 28 16.1401 28ZM23.7121 13.8466C24.08 13.8466 24.3906 13.7184 24.644 13.4621C24.8975 13.2058 25.0242 12.8914 25.0242 12.5191C25.0242 12.147 24.8975 11.8327 24.644 11.5764C24.3906 11.3201 24.08 11.1919 23.7121 11.1919C23.3442 11.1919 23.0336 11.3201 22.7802 11.5764C22.5268 11.8327 22.4001 12.147 22.4001 12.5191C22.4001 12.8914 22.5268 13.2058 22.7802 13.4621C23.0336 13.7184 23.3442 13.8466 23.7121 13.8466Z" fill="#2A7B72"/>
</g>
<defs>
<clipPath id="clip0_2557_114">
<rect width="28" height="28" fill="white"/>
</clipPath>
</defs>
</svg>
